<svg id="Layer_1" data-name="Layer 1" xmlns="http://www.w3.org/2000/svg" viewBox="0 0 841.89 142.98"><defs><style>.cls-1,.cls-2,.cls-3{isolation:isolate;}.cls-2,.cls-3{font-size:94.28px;}.cls-2,.cls-4{fill:#ffe500;}.cls-2{font-family:ProximaNova-Bold, Proxima Nova;font-weight:700;}.cls-3{font-family:ProximaNovaT-Thin, Proxima Nova;font-weight:200;}</style></defs><title>logo-2</title><g class="cls-1"><text class="cls-2" transform="translate(145.86 94.52)">gceguide</text><text class="cls-3" transform="translate(541.15 94.52)">papers</text></g><path d="M72.83,14.3a57.55,57.55,0,1,0,57.55,57.55A57.56,57.56,0,0,0,72.83,14.3Z"/><path class="cls-4" d="M96.36,91.94c0,15.26-6,24.52-20.08,24.52-13.19,0-17-8.17-17-15.06,0-5.71,2.66-12,11.42-12,5.22,0,9.06,2.26,9.06,6.89a7.83,7.83,0,0,1-.5,2.75A8,8,0,0,0,73,96.28c-4.53,0-6.59,2.85-6.59,6.59a9.72,9.72,0,0,0,9.69,9.75h.15c4.53,0,9.35-3,9.35-13.19V76c-3.44,6.3-9.25,9.35-16.44,9.35-14.47,0-24.41-12.21-24.41-30.72,0-17.32,8.76-32.58,29.73-32.58,9.35,0,20.08,3.05,20.08,14.27,0,3.45-1,8.17-6.4,8.17-2.36,0-3.54-.88-6.3-2.55.59,0,4.24-1.19,4.24-7,0-6.4-4.53-9.16-10.24-9.16-12.9,0-19.2,14-19.2,28.25,0,13.69,5.81,24.42,15.55,24.42,8.67,0,13.59-8.57,14.57-23.63l9.55.1Z"/></svg>