<svg id="Layer_1" data-name="Layer 1" xmlns="http://www.w3.org/2000/svg" viewBox="0 0 1920 1080"><defs><style>.cls-1{font-size:99px;}.cls-1,.cls-16,.cls-5{fill:#06f;}.cls-1,.cls-5,.cls-7{font-family:ProximaNova-Bold, Proxima Nova;font-weight:700;}.cls-2{fill:none;stroke:#000;stroke-linecap:round;stroke-linejoin:round;stroke-width:4px;}.cls-3{font-size:36px;}.cls-10,.cls-11,.cls-13,.cls-3,.cls-8,.cls-9{font-family:ProximaNovaT-Thin, Proxima Nova;font-weight:200;}.cls-4,.cls-9{letter-spacing:-0.03em;}.cls-6{letter-spacing:-0.01em;}.cls-10{letter-spacing:-0.02em;}.cls-11{letter-spacing:-0.06em;}.cls-12{letter-spacing:-0.01em;}.cls-13{font-size:40px;}.cls-14{letter-spacing:-0.01em;}.cls-15{letter-spacing:0em;}.cls-17{font-family:ProximaNova-Regular, Proxima Nova;font-weight:400;}.cls-18{letter-spacing:-0.01em;}.cls-19{letter-spacing:-0.02em;}.cls-20{letter-spacing:-0.02em;}.cls-21{letter-spacing:-0.06em;}</style></defs><title>res_guide</title><text class="cls-1" transform="translate(547.17 151.27)">1234_s19_qp_12</text><path class="cls-2" d="M674,188v96.33A28.68,28.68,0,0,1,645.33,313H327.67A28.68,28.68,0,0,0,299,341.67V389"/><path class="cls-2" d="M1214,188v96.33A28.68,28.68,0,0,0,1242.67,313h317.66A28.68,28.68,0,0,1,1589,341.67V389"/><rect class="cls-2" x="86" y="392" width="420" height="405" rx="59.27"/><text class="cls-3" transform="translate(113.63 489.01)">It<tspan class="cls-4" x="16.7" y="0">’</tspan><tspan x="23.11" y="0">s the </tspan><tspan class="cls-5" x="106.95" y="0">subject code</tspan><tspan x="314.06" y="0" xml:space="preserve"> for </tspan><tspan x="57.78" y="38">the subject. </tspan><tspan class="cls-6" x="243.29" y="38">e.</tspan><tspan x="270.61" y="38">g.,</tspan><tspan class="cls-7"><tspan x="-3.06" y="114">5054 </tspan><tspan class="cls-8" x="93.74" y="114">-- O </tspan><tspan class="cls-9" x="161.57" y="114">L</tspan><tspan class="cls-8" x="178.45" y="114">evel Physics</tspan><tspan x="0.32" y="152">9702 </tspan><tspan class="cls-8" x="94.97" y="152">-- A </tspan><tspan class="cls-9" x="158.18" y="152">L</tspan><tspan class="cls-8" x="175.07" y="152">evel Physics</tspan><tspan x="7.54" y="190">0625 </tspan><tspan class="cls-8" x="104.45" y="190">-- IGCSE Physics</tspan></tspan></text><rect class="cls-2" x="1456" y="392" width="392" height="405" rx="59.27"/><text class="cls-3" transform="translate(1482.06 471.01)">It<tspan class="cls-4" x="16.7" y="0">’</tspan><tspan x="23.11" y="0">s the </tspan><tspan class="cls-5" x="106.95" y="0">paper number</tspan><tspan x="336.88" y="0"> </tspan><tspan x="-6.1" y="38">followed by its </tspan><tspan class="cls-5" x="222.86" y="38">variant</tspan><tspan x="335.5" y="38">. </tspan><tspan class="cls-6" x="137.1" y="76">e.</tspan><tspan x="164.43" y="76">g.:</tspan><tspan class="cls-7"><tspan x="91.94" y="152">1 </tspan><tspan class="cls-8" x="115.95" y="152">- </tspan><tspan class="cls-10" x="136.11" y="152">P</tspan><tspan class="cls-8" x="155.37" y="152">aper 1</tspan><tspan x="83.14" y="190">2 </tspan><tspan class="cls-8" x="113.96" y="190">- </tspan><tspan class="cls-10" x="134.12" y="190">P</tspan><tspan class="cls-8" x="153.38" y="190">aper 2</tspan><tspan x="18.11" y="228">11 </tspan><tspan class="cls-8" x="56.92" y="228">- </tspan><tspan class="cls-10" x="77.08" y="228">P</tspan><tspan class="cls-8" x="96.34" y="228">aper 1 </tspan><tspan class="cls-11" x="195.26" y="228">V</tspan><tspan class="cls-8" x="216" y="228">ariant 1</tspan><tspan x="9.31" y="266">12 </tspan><tspan class="cls-8" x="54.92" y="266">- </tspan><tspan class="cls-10" x="75.08" y="266">P</tspan><tspan class="cls-8" x="94.34" y="266">aper 1 </tspan><tspan class="cls-11" x="193.26" y="266">V</tspan><tspan class="cls-8" x="214" y="266">ariant 2</tspan></tspan></text><path class="cls-2" d="M904,188v81.41A31.59,31.59,0,0,1,872.41,301H758.11A29.11,29.11,0,0,0,729,330.11V389"/><rect class="cls-2" x="524" y="392" width="430" height="405" rx="59.27"/><text class="cls-3" transform="translate(590.26 455.01)">The <tspan class="cls-5" x="69.05" y="0">exam session</tspan><tspan x="288.57" y="0">.</tspan><tspan x="41.29" y="38">‘</tspan><tspan class="cls-7" x="48.78" y="38">s</tspan><tspan x="65.95" y="38">’ for summer</tspan><tspan x="4.66" y="76">(may/june) session.</tspan><tspan x="51.01" y="114">‘</tspan><tspan class="cls-7" x="58.5" y="114">w</tspan><tspan x="86.18" y="114">’ for winter</tspan><tspan x="17.19" y="152">(oct/nov) session.</tspan><tspan x="19.66" y="190">‘</tspan><tspan class="cls-7" x="27.14" y="190">m</tspan><tspan x="57.82" y="190">’ for the march</tspan><tspan x="-2.68" y="228">(feb/march) session.</tspan><tspan x="-33.39" y="266">The latter number is the </tspan><tspan x="-0.5" y="304">year of the session.</tspan></text><path class="cls-2" d="M1076,188v82.13A27.87,27.87,0,0,0,1103.87,298h23.26A27.87,27.87,0,0,1,1155,325.87V389"/><rect class="cls-2" x="976" y="392" width="460" height="405" rx="59.27"/><text class="cls-3" transform="translate(1006.74 448.01) scale(1.05 1)"><tspan xml:space="preserve"> The </tspan><tspan class="cls-5" x="78.41" y="0">resource type</tspan><tspan x="301.53" y="0">. </tspan><tspan class="cls-12" x="318.38" y="0">e.</tspan><tspan x="345.7" y="0">g.,</tspan><tspan class="cls-7"><tspan x="35.37" y="38">qp </tspan><tspan class="cls-8" x="86.56" y="38">= question paper</tspan><tspan x="21.94" y="76">ms </tspan><tspan class="cls-8" x="79" y="76">= marking scheme</tspan><tspan x="115.7" y="114">in </tspan><tspan class="cls-8" x="154.87" y="114">= insert</tspan><tspan x="34.06" y="152">gt </tspan><tspan class="cls-8" x="76.5" y="152">= grade threshold</tspan><tspan x="34.25" y="190">er </tspan><tspan class="cls-8" x="76.34" y="190">= examiner report</tspan><tspan x="26.01" y="228">ir </tspan><tspan class="cls-8" x="57.29" y="228">= information report</tspan><tspan x="74.81" y="266">sp </tspan><tspan class="cls-8" x="122.18" y="266">= specimen.</tspan></tspan><tspan x="-2.09" y="304">The list is non-exhaustive</tspan></text><rect class="cls-2" x="142" y="842" width="1658" height="168" rx="52.13"/><text class="cls-13" transform="translate(481.25 908.68)">Therefor<tspan class="cls-14" x="146.12" y="0">e</tspan><tspan x="168.56" y="0">, as an exampl</tspan><tspan class="cls-14" x="412.11" y="0">e</tspan><tspan class="cls-15" x="434.55" y="0">, </tspan><tspan class="cls-5" x="453.27" y="0">9700_s19_qp_12</tspan><tspan class="cls-16" x="763.59" y="0"> </tspan><tspan x="773.99" y="0">would mean</tspan><tspan class="cls-17"><tspan class="cls-18" x="-298.25" y="48">A</tspan><tspan x="-272.49" y="48">S/A </tspan><tspan class="cls-19" x="-200.57" y="48">L</tspan><tspan x="-181.01" y="48">evels Biology (9700) - Summer (May/June) 2019 - Question </tspan><tspan class="cls-20" x="853.41" y="48">P</tspan><tspan x="876.09" y="48">aper - </tspan><tspan class="cls-20" x="988.41" y="48">P</tspan><tspan x="1011.09" y="48">aper 1 </tspan><tspan class="cls-21" x="1124.97" y="48">V</tspan><tspan x="1148.77" y="48">ariant 2</tspan></tspan></text></svg>